<svg id="Layer_1" data-name="Layer 1" xmlns="http://www.w3.org/2000/svg" xmlns:xlink="http://www.w3.org/1999/xlink" viewBox="0 0 911 265"><defs><style>.cls-1{fill:none;}.cls-2{clip-path:url(#clip-path);}.cls-3{clip-path:url(#clip-path-2);}.cls-4{fill:#09f;}</style><clipPath id="clip-path"><rect class="cls-1" width="911" height="264.73"/></clipPath><clipPath id="clip-path-2"><rect class="cls-1" width="911" height="264.73"/></clipPath></defs><g id="Blue_Logo" data-name="Blue Logo"><g class="cls-2"><g class="cls-3"><path class="cls-4" d="M69,211a53.93,53.93,0,0,1-15.29-1.91V190.82a41.51,41.51,0,0,0,10.88,1.44q5.87,0,8.56-3.27t2.7-9.66V101.94h23.2v80.81q0,13.55-7.83,20.88T69,211"/><path class="cls-4" d="M178.88,161.73q0,13.1-9.09,19.93t-27.2,6.85a85,85,0,0,1-15.82-1.26,58.8,58.8,0,0,1-12.25-3.69V164.4a81.65,81.65,0,0,0,14.57,5.09,58.94,58.94,0,0,0,14.26,2.06q12.63,0,12.63-7.31a6.11,6.11,0,0,0-1.67-4.45,24.7,24.7,0,0,0-5.78-3.88q-4.11-2.16-11-5.06-9.81-4.09-14.42-7.6a21.48,21.48,0,0,1-6.69-8,26.42,26.42,0,0,1-2.09-11.15q0-11.32,8.78-17.53t24.92-6.2A70.72,70.72,0,0,1,178,107l-7,16.74Q164.58,121,159,119.28a37.68,37.68,0,0,0-11.33-1.74c-6.85,0-10.27,1.84-10.27,5.55q0,3.12,3.31,5.4t14.49,6.77q10,4,14.61,7.53a22.27,22.27,0,0,1,6.84,8.06,24.82,24.82,0,0,1,2.21,10.88"/><path class="cls-4" d="M227.63,188.51q-39.72,0-39.71-43.59,0-21.67,10.8-33.13t31-11.45a59.06,59.06,0,0,1,26.47,5.78l-6.84,18c-3.66-1.48-7.05-2.68-10.2-3.62a32.77,32.77,0,0,0-9.43-1.41q-18.1,0-18.11,25.72,0,24.94,18.11,24.95a41.33,41.33,0,0,0,12.4-1.79,44.56,44.56,0,0,0,11.41-5.59v19.85a37.24,37.24,0,0,1-11.37,4.95,64.12,64.12,0,0,1-14.49,1.37"/><rect class="cls-4" x="670.14" y="70.29" width="23.2" height="116.69"/><path class="cls-4" d="M752.28,188.51q-20.53,0-32.1-11.34t-11.56-32.1q0-21.37,10.69-33t29.55-11.68q18,0,28.07,10.27T787,139v11.27H732.12q.39,9.88,5.86,15.44t15.37,5.55a63.56,63.56,0,0,0,14.53-1.6,72.6,72.6,0,0,0,14.3-5.09V182.5a54.61,54.61,0,0,1-13,4.53,82.61,82.61,0,0,1-16.89,1.48M749,116.85q-7.38,0-11.56,4.68t-4.79,13.27h32.56q-.16-8.6-4.49-13.27T749,116.85"/><path class="cls-4" d="M548.11,107.76q-7.41-7.42-21.87-7.42c-16.75,0-27.16,12.48-27.16,12.48q-6.76-12.48-25.86-12.48a32,32,0,0,0-14.83,3.31,23.59,23.59,0,0,0-9.9,9.17V101.94H426.36V187h23.2V147q0-15,4-21.52t12.93-6.55q6.62,0,9.7,4.6t3.08,13.81V187h23.21V144.31q0-13.23,4.22-19.32t12.74-6.09q6.62,0,9.7,4.6t3.08,13.81V187h23.28V131.53q0-16.35-7.42-23.77"/><path class="cls-4" d="M646.34,112q-8.52-11.76-23.58-11.76-16,0-24.11,12.63V70.29H575.44V187h23.21v-9.45q8.52,10.89,23.5,10.88,15.14,0,23.93-11.56t8.78-32.64q0-20.46-8.52-32.21M627,163.14q-4.22,6.59-11.37,6.58-8.82,0-12.89-5.93t-4.07-19.63v-2.51q.15-12.17,4.1-17.46t12.56-5.29A13.39,13.39,0,0,1,627,125.18q4.24,6.27,4.26,18.83T627,163.14"/><path class="cls-4" d="M849.41,100.34a26.33,26.33,0,0,0-14.64,4.38,32,32,0,0,0-10.69,11.52v-14.3H801.94V187h23.21V143.7q0-10.26,6.2-16t17.3-5.71a26.94,26.94,0,0,1,6.85.76L857.25,101a37.15,37.15,0,0,0-7.84-.69"/><path class="cls-4" d="M397.24,107.65q-9.14-7.47-26.25-7.46a69.17,69.17,0,0,0-32.56,7.68l7.69,15.67q13.75-6.15,24-6.16,13.23,0,13.23,12.93V134l-14.75.46q-19.1.69-28.57,7.11t-9.47,20q0,12.93,7,19.93t19.28,7q10,0,16.17-2.85t12.05-10.24V187h21.3V130.31q0-15.21-9.12-22.66m-13.93,46.93q0,7.68-4.82,12.32t-12.9,4.65q-11.26,0-11.26-9.82,0-6.84,4.95-10.19t15.06-3.65l9-.31Z"/><path class="cls-4" d="M316.77,100.34a26.34,26.34,0,0,0-14.65,4.38,31.87,31.87,0,0,0-10.68,11.52v-14.3H269.3V187h23.2V143.7q0-10.26,6.2-16T316,122a26.86,26.86,0,0,1,6.84.76L324.6,101a37.11,37.11,0,0,0-7.83-.69"/><path class="cls-4" d="M87.49,0A38.68,38.68,0,0,1,55.34,16.54C55.34,58.8,87.49,75,87.49,75s32.16-16.22,32.16-58.48A38.7,38.7,0,0,1,87.49,0"/><path class="cls-4" d="M138.4,16.54h0a96,96,0,0,1-2.85,23.63H887.37V241.1H23.63V40.17H39.44a96,96,0,0,1-2.86-23.63H0V264.73H911V16.54Z"/></g></g></g></svg>